<?xml version="1.0" encoding="UTF-8"?>
<svg width="1200pt" height="1200pt" version="1.1" viewBox="0 0 1200 1200" xmlns="http://www.w3.org/2000/svg">
 <path d="m600 1162.5c-310.64 0-562.5-251.86-562.5-562.5s251.86-562.5 562.5-562.5 562.5 251.86 562.5 562.5-251.86 562.5-562.5 562.5zm212.86-1001.2c81.141 39.422 149.68 100.73 198 176.21h-111.61c-14.578-46.641-32.953-89.484-54.562-127.36-9.8438-17.156-20.438-33.516-31.828-48.844zm105.8 251.21h131.48c24.047 57.703 37.359 121.08 37.359 187.5s-13.312 129.79-37.359 187.5h-131.48c12.234-58.828 18.844-121.97 18.844-187.5s-6.6094-128.68-18.844-187.5zm-76.781 375c13.219-57.516 20.625-120.79 20.625-187.5s-7.4062-129.98-20.625-187.5h-483.74c-13.219 57.516-20.625 120.79-20.625 187.5s7.4062 129.98 20.625 187.5zm-462.14 75h440.53c-11.625 33-25.312 63.234-40.688 90.141-51.094 89.438-116.02 134.86-179.58 134.86s-128.48-45.422-179.58-134.86c-15.375-26.906-29.062-57.141-40.688-90.141zm-98.391-75c-12.234-58.828-18.844-121.97-18.844-187.5s6.6094-128.68 18.844-187.5h-131.48c-24.047 57.703-37.359 121.08-37.359 187.5s13.312 129.79 37.359 187.5zm-92.203 75h111.61c14.578 46.641 32.953 89.484 54.562 127.36 9.8438 17.156 20.438 33.516 31.828 48.844-81.141-39.422-149.68-100.73-198-176.21zm710.11 0h111.61c-48.328 75.469-116.86 136.78-198 176.21 11.391-15.328 21.984-31.688 31.828-48.844 21.609-37.875 39.984-80.719 54.562-127.36zm-119.67-615.14c15.375 26.906 29.062 57.141 40.688 90.141h-440.53c11.625-33 25.312-63.234 40.688-90.141 51.094-89.438 116.02-134.86 179.58-134.86s128.48 45.422 179.58 134.86zm-424.26-37.219c-21.609 37.875-39.984 80.719-54.562 127.36h-111.61c48.328-75.469 116.86-136.78 198-176.21-11.391 15.328-21.984 31.688-31.828 48.844z" fill-rule="evenodd"/>
</svg>
